<svg width="36" height="40" viewBox="0 0 36 40" fill="none" xmlns="http://www.w3.org/2000/svg">
<path d="M34.4415 3.85735C33.8895 3.20829 33.0846 2.83618 32.2331 2.83618H29.4383V1.96196C29.4383 0.880158 28.5581 0 27.4764 0H8.52385C7.44197 0 6.56197 0.880158 6.56197 1.96188V2.8361H3.76689C2.9154 2.8361 2.1104 3.20829 1.55852 3.85727C1.01227 4.49954 0.776176 5.34314 0.910942 6.17165C1.64532 10.6873 4.48712 14.6766 8.52033 16.8648C8.88885 17.7508 9.30619 18.59 9.77096 19.3719C11.2555 21.87 13.101 23.5964 15.1325 24.4313C15.3383 26.5129 13.9532 28.4848 11.8673 28.9547C11.8628 28.9558 11.8597 28.9573 11.8553 28.9583C11.4482 29.0556 11.1452 29.4209 11.1452 29.8578V34.1049H9.42752C7.89611 34.1049 6.65025 35.3508 6.65025 36.8822V39.0742C6.65025 39.5855 7.0647 40 7.57603 40H28.5126C29.0239 40 29.4383 39.5855 29.4383 39.0742V36.8822C29.4383 35.3508 28.1925 34.1049 26.6611 34.1049H24.9433V29.8579C24.9433 29.4201 24.6391 29.0543 24.2309 28.9579C24.2271 28.9569 24.2234 28.9557 24.2196 28.9547C22.1179 28.4817 20.7302 26.4899 20.9577 24.3927C22.9536 23.5443 24.7668 21.8332 26.2295 19.3721C26.6943 18.5901 27.1115 17.7508 27.4801 16.8646C31.5131 14.6764 34.3548 10.6871 35.0891 6.17165C35.2239 5.34314 34.9878 4.49962 34.4415 3.85735ZM2.73845 5.87439C2.69032 5.57853 2.77212 5.28814 2.96884 5.05673C3.16845 4.82204 3.45923 4.68751 3.76681 4.68751H6.56189V6.39079C6.56189 9.06158 6.90275 11.6486 7.54877 14.0145C5.01001 12.0083 3.26204 9.094 2.73845 5.87439ZM26.6611 35.9566C27.1715 35.9566 27.5869 36.3719 27.5869 36.8823V38.1486H8.50174V36.8823C8.50174 36.3719 8.91705 35.9566 9.42752 35.9566H26.6611ZM23.0917 30.7837V34.105H12.9969V30.7837H23.0917ZM15.4248 28.9322C15.6536 28.6803 15.8628 28.4072 16.05 28.115C16.6669 27.151 16.9907 26.0558 17.0053 24.9373C17.3341 24.9821 17.666 25.0061 18.0007 25.0061C18.3648 25.0061 18.7256 24.9781 19.0829 24.9251C19.1039 26.4282 19.6889 27.8509 20.6726 28.9321H15.4248V28.9322ZM27.5867 6.39087C27.5867 10.9517 26.5394 15.226 24.6377 18.426C22.8258 21.4752 20.4686 23.1545 18.0005 23.1545C15.532 23.1545 13.1746 21.4753 11.3625 18.4261C9.4608 15.226 8.41346 10.9518 8.41346 6.39103V1.96188C8.41346 1.90094 8.46299 1.85149 8.52377 1.85149H27.4762C27.5372 1.85149 27.5867 1.90102 27.5867 1.96188V6.39087ZM33.2616 5.87439C32.738 9.09377 30.9902 12.008 28.4515 14.0143C29.0975 11.6485 29.4383 9.06158 29.4383 6.39087V4.68759H32.2331C32.5408 4.68759 32.8316 4.8222 33.0311 5.05681C33.2278 5.28814 33.3097 5.57853 33.2616 5.87439Z" fill="#ED7226"/>
</svg>
